<svg xmlns="http://www.w3.org/2000/svg" xmlns:xlink="http://www.w3.org/1999/xlink" id="svg" width="400" height="400" viewBox="0 0 400 400"><g id="svgg"><path id="path0" fill="#000" fill-rule="evenodd" stroke="none" d="M170.557 108.065 C 170.106 108.419,169.501 108.710,169.213 108.710 C 168.634 108.710,166.452 110.746,166.452 111.286 C 166.452 111.474,166.124 111.776,165.724 111.958 C 165.324 112.141,164.669 112.858,164.269 113.553 C 163.782 114.399,163.384 114.755,163.061 114.632 C 162.754 114.514,162.581 114.641,162.581 114.985 C 162.581 115.280,162.707 115.444,162.862 115.348 C 163.487 114.962,163.515 117.439,162.898 118.485 C 162.122 119.800,161.191 123.754,161.432 124.713 C 161.532 125.112,161.456 125.848,161.263 126.349 C 160.646 127.948,160.372 130.323,160.805 130.323 C 161.017 130.323,161.453 130.613,161.774 130.968 C 162.290 131.537,162.297 131.613,161.836 131.613 C 161.164 131.613,160.782 132.378,160.545 134.201 C 160.316 135.962,160.629 136.603,161.572 136.303 C 162.669 135.955,163.163 137.590,162.198 138.371 C 161.493 138.941,161.306 141.006,161.808 142.661 C 162.145 143.774,162.587 143.216,162.382 141.935 C 162.268 141.226,162.286 140.645,162.421 140.645 C 162.759 140.645,164.159 142.301,164.366 142.945 C 164.459 143.235,164.940 143.552,165.435 143.651 C 166.560 143.876,167.283 146.237,166.619 147.517 C 166.087 148.541,166.471 149.383,168.036 150.622 C 169.028 151.408,169.355 151.896,169.355 152.589 C 169.355 153.700,169.845 154.079,170.538 153.503 C 170.819 153.270,171.441 153.121,171.921 153.171 C 172.401 153.222,172.964 153.057,173.173 152.805 C 173.413 152.517,173.970 152.393,174.680 152.472 C 175.314 152.542,175.806 152.452,175.806 152.266 C 175.806 151.807,176.781 151.873,177.726 152.396 C 178.401 152.770,178.625 152.763,179.260 152.346 C 179.864 151.950,180.095 151.936,180.495 152.267 C 180.874 152.582,181.173 152.591,181.799 152.305 C 182.246 152.102,182.885 151.935,183.219 151.935 C 183.554 151.935,183.913 151.666,184.018 151.336 C 184.244 150.622,183.935 149.677,183.474 149.677 C 183.284 149.677,183.314 149.476,183.545 149.197 C 183.765 148.933,184.056 148.786,184.192 148.870 C 184.630 149.141,186.130 147.718,186.605 146.583 C 186.857 145.979,187.275 145.484,187.533 145.484 C 187.790 145.484,188.161 145.025,188.357 144.465 C 188.552 143.905,189.002 143.243,189.356 142.995 C 189.710 142.747,190.000 142.322,190.000 142.050 C 190.000 141.778,190.291 141.314,190.646 141.019 C 191.604 140.225,191.628 136.651,190.686 134.845 C 190.309 134.121,190.000 133.469,190.000 133.397 C 190.000 133.325,191.098 133.322,192.441 133.391 C 194.159 133.479,194.846 133.408,194.760 133.151 C 194.693 132.951,193.939 132.746,193.085 132.697 C 191.209 132.588,191.331 132.699,190.973 130.767 C 190.553 128.505,190.027 126.212,189.495 124.326 C 189.241 123.424,189.032 122.322,189.032 121.878 C 189.032 120.786,187.457 118.791,186.401 118.547 C 185.725 118.391,185.453 118.042,185.115 116.898 C 184.586 115.106,183.986 114.539,182.379 114.314 C 180.452 114.044,180.200 113.923,180.587 113.457 C 181.084 112.859,177.270 109.054,174.986 107.869 C 173.702 107.203,171.531 107.298,170.557 108.065 M198.291 113.794 C 198.198 114.280,198.172 114.728,198.233 114.790 C 198.491 115.053,199.032 114.431,199.032 113.871 C 199.032 112.890,198.476 112.832,198.291 113.794 M159.902 113.468 C 159.587 114.029,159.362 115.484,159.591 115.481 C 159.842 115.479,160.645 113.958,160.645 113.484 C 160.645 113.158,160.083 113.145,159.902 113.468 M156.002 115.349 C 155.598 116.403,155.785 119.032,156.265 119.032 C 156.870 119.032,157.232 117.306,156.797 116.494 C 156.608 116.142,156.542 115.625,156.649 115.346 C 156.756 115.067,156.698 114.839,156.521 114.839 C 156.343 114.839,156.110 115.068,156.002 115.349 M212.500 116.781 C 212.190 116.972,211.935 117.436,211.935 117.812 C 211.935 118.187,211.840 118.399,211.722 118.282 C 211.605 118.164,211.307 118.358,211.059 118.712 C 210.811 119.065,210.258 119.355,209.831 119.355 C 209.271 119.355,209.105 119.491,209.238 119.839 C 209.374 120.193,209.197 120.323,208.573 120.323 C 207.491 120.323,207.137 121.205,207.434 123.163 C 207.645 124.552,207.597 124.682,206.496 125.691 C 205.010 127.051,204.737 126.732,204.535 123.403 C 204.524 123.235,204.340 123.273,204.124 123.488 C 203.874 123.739,203.746 124.837,203.770 126.537 C 203.806 129.099,203.626 129.134,203.081 126.671 C 202.850 125.630,202.149 125.664,201.993 126.724 C 201.936 127.112,201.755 127.346,201.590 127.244 C 201.165 126.981,201.218 125.362,201.667 124.913 C 201.955 124.626,201.840 124.332,201.183 123.676 C 200.710 123.203,200.323 122.553,200.323 122.233 C 200.323 121.571,200.183 121.462,198.957 121.169 C 198.130 120.971,198.054 121.047,197.709 122.415 C 197.508 123.216,197.226 123.871,197.083 123.871 C 196.941 123.871,196.657 124.379,196.452 125.000 C 196.247 125.621,195.973 126.129,195.844 126.129 C 195.403 126.129,194.387 128.867,194.467 129.839 C 194.537 130.692,194.899 131.681,195.854 133.625 C 196.005 133.933,196.129 134.413,196.129 134.692 C 196.129 135.589,196.694 134.884,196.914 133.713 C 197.095 132.744,197.254 132.581,198.015 132.581 C 198.503 132.581,199.077 132.406,199.290 132.194 C 199.503 131.981,199.677 131.936,199.677 132.094 C 199.677 132.252,199.889 132.100,200.147 131.755 C 200.593 131.160,200.617 131.177,200.634 132.097 C 200.679 134.563,200.898 135.580,201.450 135.889 C 201.956 136.173,202.000 136.109,201.813 135.364 C 201.657 134.740,201.724 134.516,202.069 134.516 C 202.812 134.516,203.764 136.152,204.014 137.859 C 204.188 139.048,204.401 139.470,204.891 139.598 C 205.328 139.712,205.414 139.844,205.154 140.004 C 204.678 140.298,205.044 141.613,205.602 141.613 C 205.837 141.613,206.019 142.106,206.047 142.823 C 206.164 145.734,206.355 146.685,207.049 147.808 C 207.456 148.466,208.085 149.098,208.446 149.212 C 209.108 149.422,209.126 150.163,208.530 152.742 C 208.318 153.658,208.861 154.412,209.411 153.968 C 210.101 153.411,212.250 154.653,212.645 155.838 C 212.738 156.118,213.022 156.066,213.654 155.652 C 214.468 155.119,214.576 155.115,215.114 155.603 C 215.434 155.892,215.848 156.129,216.034 156.129 C 216.221 156.129,216.608 156.456,216.896 156.855 L 217.419 157.581 217.927 156.878 L 218.434 156.176 219.082 156.824 C 219.686 157.428,219.757 157.434,220.131 156.922 C 220.783 156.030,224.194 158.037,224.194 159.312 C 224.194 159.513,224.397 159.677,224.645 159.677 C 224.946 159.677,225.097 159.301,225.097 158.547 C 225.097 157.260,224.706 156.861,224.011 157.437 C 223.618 157.763,223.569 157.741,223.734 157.310 C 223.974 156.685,226.099 156.028,226.591 156.427 C 227.638 157.273,229.355 156.440,229.355 155.086 C 229.355 154.412,230.849 153.095,231.119 153.532 C 231.356 153.916,232.629 151.635,233.366 149.505 C 234.237 146.986,233.074 138.590,231.549 136.386 C 231.092 135.726,230.959 135.008,231.002 133.434 C 231.046 131.849,230.905 131.096,230.411 130.274 C 230.054 129.680,229.505 128.504,229.192 127.661 C 228.658 126.225,226.505 123.789,224.167 121.975 C 223.708 121.619,222.711 120.521,221.950 119.535 C 220.595 117.779,220.533 117.742,218.938 117.742 C 217.878 117.742,217.104 117.556,216.722 117.211 C 216.017 116.573,213.290 116.295,212.500 116.781 M229.905 117.341 C 229.696 118.433,230.478 118.613,231.446 117.696 C 232.489 116.706,232.465 116.617,231.155 116.590 C 230.239 116.571,230.028 116.698,229.905 117.341 M209.594 117.768 C 208.515 118.998,208.514 119.009,209.517 118.902 C 210.370 118.811,211.045 118.387,210.337 118.387 C 210.008 118.387,210.003 118.288,210.314 117.914 C 211.122 116.940,210.442 116.801,209.594 117.768 M204.194 119.946 C 204.194 121.558,204.324 122.581,204.530 122.581 C 204.837 122.581,204.634 117.815,204.311 117.446 C 204.247 117.372,204.194 118.497,204.194 119.946 M232.641 118.100 C 232.151 118.285,231.982 118.521,232.149 118.788 C 232.289 119.011,232.361 119.448,232.310 119.758 C 232.204 120.402,232.381 120.452,233.207 120.010 C 234.415 119.364,233.900 117.624,232.641 118.100 M214.194 119.355 C 214.194 120.047,213.722 120.220,213.374 119.655 C 213.256 119.466,212.957 119.389,212.709 119.484 C 212.461 119.579,212.258 119.527,212.258 119.368 C 212.258 119.094,212.912 118.829,213.790 118.747 C 214.012 118.727,214.194 119.000,214.194 119.355 M243.348 121.517 C 240.624 123.283,239.490 126.936,242.024 125.781 C 243.073 125.303,243.795 125.565,244.174 126.562 C 244.453 127.296,246.129 127.993,246.129 127.375 C 246.129 126.659,246.747 127.208,246.942 128.096 C 247.127 128.936,247.002 129.261,246.162 130.128 C 244.721 131.614,245.455 133.137,247.473 132.847 C 248.206 132.742,248.734 130.645,248.027 130.645 C 247.475 130.645,247.749 128.803,248.387 128.226 C 249.244 127.450,249.255 126.454,248.403 126.677 C 248.045 126.770,247.341 126.533,246.767 126.124 C 246.113 125.658,245.796 125.562,245.862 125.849 C 245.918 126.092,245.855 126.327,245.724 126.371 C 245.196 126.548,244.839 126.433,244.839 126.084 C 244.839 125.882,244.605 125.545,244.318 125.336 C 243.845 124.990,243.859 124.836,244.480 123.620 C 245.830 120.974,245.405 120.184,243.348 121.517 M158.590 122.016 C 158.300 123.101,158.348 124.194,158.686 124.194 C 158.850 124.194,159.033 124.445,159.093 124.753 C 159.152 125.060,159.221 124.407,159.247 123.301 C 159.293 121.295,158.959 120.641,158.590 122.016 M194.639 122.081 C 194.385 122.743,194.764 123.226,195.537 123.226 C 196.007 123.226,196.142 123.078,196.002 122.716 C 195.895 122.435,195.806 122.072,195.806 121.909 C 195.806 121.428,194.834 121.571,194.639 122.081 M157.293 126.317 C 157.185 126.597,157.097 127.207,157.097 127.672 C 157.097 128.785,157.660 128.231,157.938 126.845 C 158.152 125.771,157.657 125.366,157.293 126.317 M240.000 127.097 C 240.000 127.274,240.399 127.417,240.887 127.414 C 241.578 127.411,241.667 127.340,241.290 127.097 C 240.659 126.689,240.000 126.689,240.000 127.097 M205.329 130.303 C 204.996 131.247,204.951 131.866,205.173 132.449 C 205.559 133.466,205.567 133.871,205.199 133.871 C 204.386 133.871,203.861 130.135,204.473 128.698 C 205.272 126.822,206.046 128.273,205.329 130.303 M238.782 131.532 C 238.877 132.333,238.724 133.103,238.329 133.809 L 237.732 134.877 238.521 134.293 C 240.326 132.959,240.517 130.323,238.809 130.323 C 238.716 130.323,238.704 130.867,238.782 131.532 M157.853 132.315 C 157.144 132.659,156.629 134.153,157.065 134.604 C 157.400 134.952,158.292 133.888,158.558 132.823 C 158.680 132.335,158.728 131.945,158.664 131.957 C 158.600 131.969,158.236 132.130,157.853 132.315 M199.355 135.584 C 199.355 135.846,199.583 136.148,199.862 136.255 C 200.216 136.390,200.338 136.287,200.265 135.913 C 200.133 135.230,199.355 134.949,199.355 135.584 M196.042 135.679 C 195.912 135.808,195.806 136.137,195.806 136.409 C 195.806 136.772,195.902 136.808,196.165 136.544 C 196.363 136.347,196.469 136.019,196.401 135.815 C 196.333 135.610,196.171 135.549,196.042 135.679 M243.696 136.796 C 243.579 136.985,243.565 137.221,243.663 137.319 C 243.929 137.585,244.839 137.171,244.839 136.784 C 244.839 136.346,243.969 136.355,243.696 136.796 M202.377 140.081 C 202.484 140.480,202.574 140.988,202.576 141.210 C 202.579 141.431,202.726 141.613,202.903 141.613 C 203.262 141.613,203.332 140.652,203.030 139.865 C 202.727 139.074,202.158 139.262,202.377 140.081 M243.878 141.278 C 243.476 142.028,243.635 142.903,244.172 142.903 C 244.846 142.903,245.256 141.570,244.740 141.054 C 244.310 140.624,244.214 140.649,243.878 141.278 M240.980 144.985 C 240.756 145.255,240.660 145.702,240.766 145.978 C 241.026 146.655,242.340 145.984,242.197 145.247 C 242.057 144.528,241.465 144.401,240.980 144.985 M155.035 147.607 C 154.775 148.284,154.786 148.387,155.124 148.387 C 155.280 148.387,155.485 148.097,155.577 147.742 C 155.777 146.980,155.319 146.866,155.035 147.607 M165.484 150.161 C 165.484 150.605,165.629 150.968,165.806 150.968 C 165.984 150.968,166.129 150.605,166.129 150.161 C 166.129 149.718,165.984 149.355,165.806 149.355 C 165.629 149.355,165.484 149.718,165.484 150.161 M140.074 150.383 C 140.235 150.865,140.968 151.131,140.968 150.707 C 140.968 150.533,140.738 150.303,140.457 150.196 C 140.143 150.075,139.995 150.147,140.074 150.383 M146.594 150.506 C 146.000 150.986,146.017 151.000,146.935 150.780 C 147.468 150.653,148.157 150.539,148.468 150.528 C 149.415 150.493,149.096 150.000,148.126 150.000 C 147.628 150.000,146.938 150.228,146.594 150.506 M154.516 150.444 C 154.516 150.732,154.386 150.968,154.228 150.968 C 153.070 150.968,153.939 153.504,155.310 154.129 C 155.972 154.431,156.091 154.635,155.862 155.079 C 155.305 156.164,155.180 158.387,155.676 158.387 C 155.925 158.387,156.129 158.594,156.129 158.848 C 156.129 159.147,156.781 159.451,157.984 159.714 C 159.004 159.938,159.957 160.314,160.100 160.551 C 160.244 160.788,160.508 160.891,160.686 160.781 C 160.865 160.671,161.207 160.849,161.447 161.177 C 162.045 161.996,162.168 161.715,162.005 159.893 C 161.875 158.435,161.816 158.347,161.094 158.528 C 160.446 158.691,160.323 158.602,160.323 157.971 C 160.323 157.557,159.897 156.784,159.376 156.251 C 158.856 155.719,158.332 154.894,158.213 154.418 C 158.036 153.714,157.859 153.588,157.259 153.738 C 156.434 153.945,155.814 153.298,156.456 152.901 C 156.771 152.706,156.710 152.428,156.190 151.698 C 155.183 150.285,154.516 149.785,154.516 150.444 M148.136 155.238 C 147.732 155.432,147.445 155.675,147.500 155.779 C 147.554 155.883,147.882 156.585,148.230 157.339 C 149.022 159.056,149.183 159.056,149.234 157.339 C 149.257 156.585,149.329 155.768,149.396 155.524 C 149.558 154.928,149.031 154.808,148.136 155.238 M143.195 160.649 C 138.034 161.522,133.800 168.055,133.683 175.323 C 133.640 178.046,133.494 178.870,132.749 180.617 C 131.388 183.810,131.910 188.027,134.052 191.137 C 134.970 192.469,135.272 193.216,135.218 194.015 C 135.160 194.882,135.369 195.305,136.282 196.166 C 136.908 196.756,137.419 197.465,137.419 197.741 C 137.419 198.017,137.650 198.572,137.931 198.974 C 138.343 199.562,138.365 199.799,138.044 200.186 C 137.551 200.780,138.706 202.040,139.473 201.746 C 139.795 201.623,139.983 201.807,140.056 202.314 C 140.140 202.898,140.342 203.046,140.969 202.983 C 141.540 202.925,141.645 202.985,141.330 203.189 C 140.659 203.623,141.140 204.091,142.291 204.124 C 143.734 204.165,144.043 204.625,143.956 206.610 C 143.893 208.072,144.013 208.506,144.711 209.336 C 146.201 211.107,146.630 210.221,145.502 207.702 C 144.977 206.529,144.944 206.222,145.302 205.812 C 145.538 205.543,145.832 204.988,145.957 204.579 C 146.218 203.724,146.879 203.795,147.054 204.696 C 147.119 205.032,147.396 205.471,147.671 205.671 C 147.973 205.892,148.085 206.256,147.955 206.595 C 147.521 207.726,148.096 207.812,149.657 206.849 C 149.734 206.801,149.879 206.160,149.979 205.423 C 150.201 203.792,150.703 203.562,151.655 204.656 C 152.606 205.750,152.983 205.702,154.010 204.355 C 154.484 203.734,155.095 203.226,155.369 203.226 C 156.076 203.226,157.514 202.032,157.109 201.782 C 156.613 201.475,157.531 199.900,158.510 199.375 C 159.206 199.003,159.415 199.003,159.866 199.377 C 160.392 199.814,160.455 198.132,159.977 196.452 C 159.878 196.105,160.055 195.991,160.603 196.051 C 161.262 196.124,161.345 196.022,161.209 195.312 C 161.078 194.623,161.224 194.418,162.113 194.046 C 163.647 193.405,164.814 190.307,163.685 189.874 C 163.082 189.643,163.100 188.739,163.720 188.053 C 164.931 186.715,164.676 182.235,163.210 179.112 C 161.449 175.360,161.278 175.015,159.983 172.616 C 159.212 171.187,158.993 170.512,159.270 170.413 C 159.997 170.155,161.133 169.091,160.915 168.873 C 160.673 168.630,159.330 169.264,158.935 169.806 C 158.759 170.047,158.552 169.968,158.290 169.561 C 156.513 166.803,155.976 166.152,154.657 165.161 C 153.831 164.540,152.772 163.651,152.303 163.185 C 149.947 160.840,146.968 160.011,143.195 160.649 M163.359 161.210 C 163.266 161.520,162.835 162.449,162.401 163.273 C 161.441 165.100,161.441 165.092,162.335 165.219 C 163.381 165.369,163.398 166.266,162.372 167.217 C 161.234 168.272,161.611 168.661,163.089 167.957 C 163.945 167.548,164.188 167.264,164.050 166.829 C 163.755 165.901,165.401 164.493,165.932 165.219 C 166.176 165.553,166.488 165.661,166.747 165.501 C 167.366 165.118,166.861 163.888,165.940 163.538 C 165.056 163.202,164.932 162.528,165.645 161.935 C 166.553 161.182,166.213 160.645,164.829 160.645 C 163.870 160.645,163.484 160.793,163.359 161.210 M250.984 168.602 C 250.033 169.016,248.485 170.420,247.244 171.993 C 246.809 172.544,246.800 173.967,247.229 174.257 C 247.412 174.380,247.449 174.594,247.312 174.731 C 247.174 174.869,246.955 174.808,246.824 174.597 C 246.643 174.304,246.303 174.300,245.390 174.580 C 244.041 174.994,243.872 175.324,244.875 175.587 L 245.557 175.765 244.870 176.731 C 244.491 177.262,243.661 178.019,243.023 178.412 C 241.975 179.061,241.922 179.159,242.465 179.451 C 242.795 179.628,243.124 179.822,243.196 179.883 C 243.537 180.170,241.480 181.613,240.729 181.613 L 239.879 181.613 240.746 182.518 C 241.223 183.015,241.613 183.578,241.613 183.768 C 241.613 183.959,241.831 184.296,242.098 184.517 C 243.239 185.464,244.534 188.850,243.852 189.102 C 243.134 189.368,243.006 190.000,243.670 190.000 C 244.158 190.000,244.969 190.846,245.027 191.415 C 245.047 191.612,245.085 191.967,245.112 192.203 C 245.147 192.508,245.442 192.570,246.129 192.419 C 247.065 192.214,247.480 192.628,246.774 193.065 C 246.149 193.451,248.103 196.129,249.011 196.129 C 249.200 196.129,249.355 196.321,249.355 196.557 C 249.355 197.079,250.700 198.387,251.237 198.387 C 251.452 198.387,251.777 198.714,251.960 199.113 C 252.304 199.861,257.291 203.450,257.786 203.306 C 257.939 203.262,258.065 203.421,258.065 203.660 C 258.065 204.527,259.328 205.334,260.014 204.905 C 260.356 204.691,260.993 204.516,261.428 204.516 C 261.864 204.516,262.306 204.377,262.411 204.208 C 262.516 204.038,262.851 203.993,263.155 204.107 C 263.648 204.291,263.658 204.251,263.247 203.745 C 262.844 203.251,262.844 203.138,263.247 202.884 C 263.867 202.491,264.194 202.507,264.194 202.930 C 264.194 203.122,264.375 203.219,264.597 203.144 C 264.823 203.068,264.954 202.631,264.896 202.148 C 264.828 201.584,264.972 201.219,265.313 201.088 C 266.047 200.806,266.242 201.121,265.821 201.908 C 265.448 202.606,265.667 202.762,266.382 202.308 C 266.610 202.163,266.703 201.803,266.589 201.506 C 266.436 201.107,266.560 200.968,267.070 200.968 C 267.523 200.968,267.873 200.666,268.095 200.081 C 268.280 199.594,268.624 198.977,268.858 198.710 C 269.093 198.444,269.358 197.645,269.447 196.935 C 269.536 196.226,269.793 194.339,270.020 192.742 C 270.468 189.577,269.858 186.621,268.367 184.725 C 268.023 184.288,267.742 183.768,267.742 183.569 C 267.742 183.370,266.798 182.277,265.645 181.141 C 264.492 180.005,263.548 178.831,263.548 178.532 C 263.548 178.234,263.312 177.245,263.023 176.334 C 261.095 170.259,255.471 166.647,250.984 168.602 M165.934 169.952 C 163.408 172.814,163.352 172.999,164.697 174.025 C 165.563 174.686,165.818 175.084,165.688 175.578 C 165.583 175.982,165.720 176.392,166.039 176.625 C 167.220 177.489,167.775 181.077,166.807 181.595 C 166.264 181.886,166.233 182.079,166.532 183.300 C 166.985 185.154,168.065 186.379,168.065 185.039 C 168.065 184.795,168.284 184.413,168.552 184.190 C 168.852 183.942,168.931 183.646,168.758 183.425 C 167.899 182.327,168.026 180.266,168.907 180.998 C 169.528 181.513,169.877 181.113,169.355 180.484 C 169.127 180.209,169.013 179.912,169.101 179.823 C 169.337 179.588,170.323 180.019,170.323 180.357 C 170.323 180.516,170.742 180.645,171.255 180.645 C 172.211 180.645,172.587 179.764,172.590 177.520 C 172.591 177.100,172.850 176.732,173.231 176.611 C 173.584 176.499,174.022 176.127,174.205 175.785 C 174.389 175.442,174.815 175.161,175.154 175.161 C 176.044 175.161,176.257 174.598,175.692 173.736 C 175.301 173.140,174.928 172.992,173.881 173.019 C 172.749 173.049,172.406 172.884,171.459 171.850 C 170.852 171.187,170.205 170.645,170.021 170.645 C 169.837 170.645,169.474 170.137,169.214 169.516 C 168.552 167.931,167.608 168.056,165.934 169.952 M270.323 171.271 C 270.323 171.814,270.378 172.258,270.446 172.258 C 270.720 172.258,270.862 170.618,270.602 170.457 C 270.448 170.362,270.323 170.729,270.323 171.271 M241.290 176.613 C 241.290 177.207,241.542 177.207,242.581 176.613 L 243.387 176.152 242.339 176.140 C 241.617 176.133,241.290 176.280,241.290 176.613 M239.502 177.641 C 238.943 178.200,238.943 178.231,239.493 178.337 C 240.266 178.486,240.892 177.859,240.431 177.399 C 240.188 177.156,239.916 177.227,239.502 177.641 M131.290 192.562 C 131.290 193.661,131.726 194.511,132.098 194.139 C 132.330 193.907,131.846 191.290,131.570 191.290 C 131.416 191.290,131.290 191.862,131.290 192.562 M158.645 191.677 C 159.192 192.224,159.126 192.903,158.525 192.903 C 157.860 192.903,157.000 192.030,157.257 191.615 C 157.528 191.176,158.173 191.205,158.645 191.677 M159.516 194.194 C 159.626 194.371,159.501 194.516,159.239 194.516 C 158.977 194.516,158.497 194.608,158.172 194.721 C 157.652 194.901,157.659 194.863,158.226 194.408 C 158.985 193.800,159.246 193.756,159.516 194.194 M196.129 197.903 C 195.802 198.297,195.818 198.387,196.211 198.387 C 196.477 198.387,196.876 198.169,197.097 197.903 C 197.423 197.510,197.408 197.419,197.014 197.419 C 196.748 197.419,196.350 197.637,196.129 197.903 M150.587 201.234 C 150.660 201.734,150.462 202.021,149.892 202.238 C 149.454 202.404,149.000 202.695,148.883 202.883 C 148.577 203.379,148.065 203.304,148.065 202.762 C 148.065 201.393,150.402 199.977,150.587 201.234 M263.078 201.957 C 263.429 202.526,263.059 202.605,262.396 202.104 C 261.850 201.691,261.841 201.632,262.320 201.623 C 262.620 201.618,262.961 201.768,263.078 201.957 M261.774 203.226 C 261.618 203.478,261.433 203.497,261.218 203.282 C 261.040 203.105,261.000 202.789,261.129 202.581 C 261.285 202.328,261.471 202.309,261.686 202.524 C 261.863 202.702,261.903 203.017,261.774 203.226 M136.839 202.968 C 136.626 203.181,136.452 203.935,136.452 204.645 C 136.452 206.259,136.948 205.830,137.253 203.952 C 137.492 202.483,137.442 202.365,136.839 202.968 M149.032 204.839 C 149.032 205.194,148.903 205.484,148.744 205.484 C 148.382 205.484,148.043 204.645,148.302 204.386 C 148.690 203.998,149.032 204.210,149.032 204.839 M180.315 206.855 C 180.311 207.254,180.024 207.944,179.677 208.387 C 179.330 208.831,179.043 209.495,179.039 209.863 C 179.035 210.231,178.664 211.610,178.215 212.927 C 177.765 214.245,177.445 215.685,177.503 216.129 L 177.609 216.935 178.050 216.048 C 178.292 215.560,178.672 215.161,178.893 215.161 C 179.128 215.161,179.228 214.908,179.134 214.549 C 179.046 214.212,179.162 213.595,179.392 213.178 C 179.621 212.761,179.816 212.271,179.824 212.090 C 179.832 211.909,180.238 211.330,180.726 210.803 C 181.754 209.693,181.826 209.158,181.063 208.314 C 180.614 207.817,180.584 207.591,180.901 207.083 C 181.406 206.275,181.392 206.129,180.806 206.129 C 180.522 206.129,180.320 206.428,180.315 206.855 M190.887 206.800 C 190.105 207.256,190.181 208.210,191.048 208.815 C 191.670 209.248,191.691 209.323,191.199 209.338 C 190.343 209.363,187.416 210.923,187.208 211.465 C 187.109 211.724,186.825 211.935,186.577 211.935 C 185.849 211.935,182.903 214.970,182.903 215.721 C 182.903 216.744,182.565 217.419,182.052 217.419 C 181.799 217.419,181.501 217.673,181.389 217.984 C 181.277 218.294,180.919 218.934,180.593 219.405 C 180.232 219.926,180.000 220.830,180.000 221.716 C 180.000 223.087,177.846 225.806,176.760 225.806 C 176.625 225.806,176.370 226.223,176.192 226.732 C 175.791 227.882,174.434 229.192,172.742 230.062 C 171.210 230.851,167.887 234.264,167.280 235.674 C 166.747 236.909,163.199 239.355,161.938 239.355 C 161.448 239.355,160.857 239.583,160.626 239.862 C 160.394 240.141,159.687 240.635,159.054 240.960 C 158.421 241.284,157.468 242.158,156.935 242.900 C 156.403 243.643,155.559 244.688,155.060 245.223 C 154.426 245.901,154.180 246.466,154.246 247.094 C 154.298 247.589,154.167 248.336,153.956 248.755 C 152.931 250.782,152.149 253.564,152.110 255.323 C 152.087 256.387,151.954 257.499,151.817 257.793 C 151.634 258.184,151.754 258.388,152.258 258.548 C 152.894 258.750,152.909 258.814,152.442 259.330 C 151.876 259.956,152.066 260.323,152.957 260.323 C 153.468 260.323,153.548 260.600,153.548 262.369 C 153.548 264.597,154.084 265.484,155.429 265.484 C 155.814 265.484,156.129 265.649,156.129 265.852 C 156.129 266.376,155.117 267.074,154.339 267.087 C 153.670 267.097,152.903 267.654,152.903 268.129 C 152.903 268.271,153.556 268.387,154.355 268.387 C 155.153 268.387,155.806 268.242,155.806 268.065 C 155.806 267.066,157.102 267.845,157.467 269.063 C 157.729 269.937,158.118 270.481,158.617 270.671 C 159.032 270.829,159.460 271.190,159.569 271.473 C 159.691 271.792,160.004 271.925,160.391 271.824 C 161.284 271.591,162.420 272.827,162.307 273.909 C 162.257 274.385,162.371 274.870,162.560 274.987 C 162.749 275.104,162.903 275.639,162.903 276.177 C 162.903 276.860,163.195 277.411,163.871 278.004 C 164.403 278.471,164.839 279.016,164.839 279.215 C 164.839 279.596,165.864 280.645,166.235 280.645 C 166.354 280.645,166.452 280.379,166.452 280.054 C 166.452 279.189,166.816 278.967,167.254 279.565 C 167.464 279.852,168.110 280.124,168.691 280.170 C 170.255 280.293,170.992 281.133,169.798 281.433 C 169.160 281.593,168.791 281.516,168.537 281.168 C 168.169 280.665,166.774 280.570,166.774 281.048 C 166.774 281.644,167.866 282.924,168.250 282.777 C 168.477 282.690,168.836 282.828,169.048 283.084 C 169.613 283.764,170.860 283.651,171.408 282.868 C 172.027 281.984,172.578 282.348,172.591 283.648 C 172.600 284.573,172.645 284.620,173.030 284.113 C 173.265 283.802,173.688 283.548,173.968 283.548 C 174.249 283.548,174.556 283.422,174.651 283.268 C 174.746 283.114,175.417 282.893,176.141 282.777 C 177.279 282.596,177.526 282.403,177.956 281.364 C 178.603 279.805,178.638 279.779,179.150 280.479 C 179.762 281.316,180.488 280.910,180.582 279.679 C 180.697 278.170,181.087 277.622,182.384 277.153 C 183.018 276.924,183.969 276.346,184.498 275.868 C 185.026 275.391,185.719 274.768,186.036 274.485 C 186.353 274.202,187.418 273.102,188.401 272.042 C 190.872 269.378,193.564 268.180,194.077 269.516 C 194.285 270.058,195.484 270.187,195.484 269.667 C 195.484 269.484,195.731 269.240,196.034 269.123 C 196.337 269.007,196.842 268.692,197.157 268.422 C 197.547 268.088,198.319 267.951,199.590 267.993 C 200.690 268.028,202.030 267.833,202.864 267.515 C 204.185 267.012,204.302 267.013,204.674 267.521 C 205.158 268.183,206.085 268.232,206.325 267.608 C 206.427 267.341,207.197 267.057,208.169 266.926 C 209.967 266.685,212.356 265.087,212.744 263.866 C 212.855 263.514,213.139 263.226,213.374 263.226 C 213.610 263.226,213.880 263.021,213.976 262.771 C 214.242 262.079,217.696 261.164,218.523 261.566 C 218.892 261.746,220.065 261.989,221.129 262.108 C 222.194 262.226,223.210 262.416,223.387 262.530 C 223.565 262.645,224.363 262.760,225.161 262.787 C 227.496 262.864,228.775 263.235,228.568 263.775 C 228.338 264.375,228.689 265.806,229.067 265.806 C 229.225 265.806,229.355 265.589,229.355 265.323 C 229.355 265.056,229.553 264.839,229.795 264.839 C 230.326 264.839,231.935 267.080,231.935 267.821 C 231.935 268.111,232.077 268.436,232.249 268.543 C 232.421 268.649,232.842 269.369,233.184 270.142 C 234.018 272.027,234.961 272.906,236.715 273.434 C 237.520 273.676,238.407 274.080,238.686 274.331 C 239.518 275.081,240.968 275.328,240.968 274.720 C 240.968 274.439,241.258 273.734,241.612 273.153 C 242.015 272.492,242.256 272.300,242.257 272.641 C 242.258 273.017,242.578 273.216,243.294 273.286 C 244.080 273.363,244.384 273.581,244.555 274.194 L 244.781 275.000 245.009 274.274 C 245.183 273.720,245.481 273.548,246.272 273.548 C 248.043 273.548,249.664 271.197,249.915 268.265 C 250.074 266.408,250.174 266.211,251.575 264.958 L 253.065 263.625 253.031 260.709 C 253.006 258.448,252.842 257.461,252.305 256.319 C 251.925 255.509,251.613 254.509,251.613 254.097 C 251.613 253.686,251.410 253.072,251.162 252.732 C 250.770 252.196,250.793 251.906,251.342 250.515 C 252.056 248.703,251.931 247.043,250.938 245.161 C 250.610 244.540,249.970 243.250,249.516 242.293 C 249.062 241.337,248.332 240.128,247.894 239.607 C 247.455 239.086,247.097 238.483,247.097 238.266 C 247.097 237.572,243.652 234.232,242.697 233.999 C 242.189 233.875,241.077 233.195,240.224 232.487 C 238.782 231.290,238.617 231.231,237.864 231.634 C 237.110 232.037,236.999 231.996,236.246 231.033 C 235.801 230.465,235.171 230.000,234.845 230.000 C 234.519 230.000,233.550 229.635,232.691 229.190 C 231.832 228.744,230.232 228.196,229.137 227.973 C 227.636 227.667,226.973 227.349,226.452 226.687 C 226.071 226.202,225.544 225.806,225.281 225.806 C 225.018 225.806,224.512 225.149,224.156 224.346 C 223.801 223.542,223.228 222.709,222.884 222.494 C 222.516 222.264,222.258 221.745,222.258 221.232 C 222.258 220.753,222.118 220.274,221.948 220.169 C 221.762 220.054,221.749 219.685,221.916 219.246 C 222.221 218.443,221.822 217.428,221.194 217.405 C 220.981 217.398,220.232 216.490,219.531 215.389 C 218.178 213.266,215.375 210.323,214.706 210.323 C 214.486 210.323,213.954 209.946,213.524 209.486 C 212.858 208.774,212.551 208.677,211.452 208.829 C 210.049 209.024,206.957 208.562,205.161 207.889 C 203.193 207.151,198.576 207.319,195.741 208.232 C 192.729 209.202,192.581 209.208,192.581 208.366 C 192.581 206.872,191.879 206.223,190.887 206.800 M218.143 206.666 C 217.516 206.919,218.012 207.419,218.890 207.419 C 219.375 207.419,219.677 207.233,219.677 206.935 C 219.677 206.464,218.958 206.337,218.143 206.666 M220.323 208.510 C 220.323 208.776,220.468 209.084,220.645 209.194 C 220.823 209.303,220.968 209.175,220.968 208.909 C 220.968 208.643,220.823 208.335,220.645 208.226 C 220.468 208.116,220.323 208.244,220.323 208.510 M147.097 210.584 C 147.097 210.727,147.310 211.126,147.570 211.471 C 148.054 212.110,148.221 211.752,147.869 210.833 C 147.666 210.306,147.097 210.122,147.097 210.584 M180.818 214.060 C 180.517 214.519,180.354 214.978,180.456 215.080 C 180.721 215.344,181.935 214.178,181.935 213.660 C 181.935 212.967,181.411 213.156,180.818 214.060 M179.526 216.546 C 179.388 216.864,179.366 217.215,179.476 217.326 C 179.804 217.653,180.068 217.193,179.917 216.558 C 179.783 215.994,179.766 215.993,179.526 216.546 M170.661 219.985 C 169.122 221.360,169.470 222.393,171.352 222.033 C 171.958 221.918,172.316 222.070,172.688 222.602 C 173.114 223.210,173.278 223.261,173.695 222.915 C 174.249 222.455,174.375 221.290,173.871 221.290 C 173.694 221.290,173.548 221.142,173.548 220.962 C 173.548 220.780,173.879 220.716,174.288 220.819 C 175.043 221.008,176.461 219.902,176.023 219.464 C 175.326 218.767,171.623 219.127,170.661 219.985 M233.585 224.470 C 233.290 225.006,233.267 225.332,233.508 225.572 C 233.922 225.987,234.312 225.180,234.126 224.293 C 234.019 223.782,233.952 223.804,233.585 224.470 M253.952 248.942 C 253.494 249.106,253.396 250.000,253.836 250.000 C 254.108 250.000,254.633 249.022,254.443 248.869 C 254.395 248.830,254.173 248.863,253.952 248.942 M255.855 251.597 C 255.926 251.810,256.089 251.973,256.218 251.960 C 256.603 251.920,256.529 251.477,256.113 251.339 C 255.900 251.268,255.784 251.384,255.855 251.597 M224.194 265.323 C 224.194 265.589,224.339 265.806,224.516 265.806 C 224.694 265.806,224.839 265.589,224.839 265.323 C 224.839 265.056,224.694 264.839,224.516 264.839 C 224.339 264.839,224.194 265.056,224.194 265.323 M226.324 266.641 C 225.921 267.692,226.085 268.503,226.613 268.065 C 227.146 267.622,227.261 266.591,226.808 266.311 C 226.649 266.213,226.431 266.362,226.324 266.641 M242.129 269.531 C 242.243 269.983,242.238 270.451,242.118 270.570 C 241.838 270.850,241.302 270.006,241.295 269.274 C 241.288 268.414,241.896 268.601,242.129 269.531 M259.590 271.163 C 259.461 271.292,259.355 271.620,259.355 271.892 C 259.355 272.256,259.450 272.292,259.714 272.028 C 259.911 271.831,260.017 271.502,259.949 271.298 C 259.881 271.094,259.719 271.033,259.590 271.163 M263.276 272.399 C 263.337 272.695,263.532 272.930,263.710 272.920 C 264.188 272.895,264.101 272.173,263.598 272.006 C 263.327 271.915,263.206 272.063,263.276 272.399 M261.284 275.008 C 261.059 275.278,260.966 275.589,261.075 275.699 C 261.310 275.933,262.258 275.212,262.258 274.799 C 262.258 274.355,261.732 274.467,261.284 275.008 M0.000 281.798 C 0.000 282.098,0.219 282.263,0.538 282.201 C 1.347 282.044,1.458 281.290,0.672 281.290 C 0.276 281.290,0.000 281.499,0.000 281.798 M0.000 283.548 C 0.000 283.726,0.209 283.871,0.465 283.871 C 0.720 283.871,1.019 283.726,1.129 283.548 C 1.239 283.371,1.030 283.226,0.664 283.226 C 0.299 283.226,0.000 283.371,0.000 283.548 M173.871 285.021 C 173.871 285.904,174.517 286.774,175.173 286.774 C 176.050 286.774,175.997 285.654,175.090 285.018 C 174.183 284.383,173.871 284.384,173.871 285.021 M0.038 342.339 L -0.005 400.000 21.973 400.000 L 43.952 400.000 43.744 398.962 C 43.469 397.589,43.061 397.210,42.425 397.737 C 42.147 397.968,41.819 398.055,41.695 397.932 C 41.571 397.808,41.634 397.605,41.835 397.481 C 42.321 397.181,42.206 395.484,41.700 395.484 C 41.481 395.484,41.208 395.085,41.092 394.597 C 40.976 394.109,40.660 393.455,40.389 393.143 C 40.118 392.832,39.980 392.493,40.083 392.390 C 40.185 392.288,39.994 391.929,39.658 391.593 C 39.322 391.257,39.132 390.761,39.235 390.491 C 39.339 390.221,39.263 390.000,39.067 390.000 C 38.870 390.000,38.710 389.782,38.710 389.516 C 38.710 389.250,38.565 389.032,38.387 389.032 C 38.210 389.032,38.065 388.766,38.065 388.441 C 38.065 388.116,37.957 387.742,37.826 387.611 C 37.694 387.479,37.353 386.621,37.067 385.702 C 36.746 384.671,36.283 383.898,35.856 383.681 C 35.476 383.488,35.258 383.237,35.371 383.124 C 35.484 383.011,35.350 382.831,35.073 382.725 C 34.732 382.594,34.608 382.227,34.689 381.589 C 34.785 380.827,34.687 380.645,34.178 380.645 C 33.805 380.645,33.536 380.415,33.519 380.081 C 33.502 379.770,33.466 379.081,33.438 378.548 C 33.399 377.813,33.232 377.580,32.742 377.580 C 32.022 377.579,31.870 376.129,32.276 373.145 C 32.390 372.302,32.361 371.613,32.210 371.613 C 32.059 371.613,31.935 371.755,31.935 371.929 C 31.935 372.117,31.596 372.089,31.092 371.860 C 30.629 371.649,30.411 371.422,30.609 371.356 C 30.806 371.290,30.968 370.943,30.968 370.584 C 30.968 370.156,30.812 369.991,30.514 370.105 C 30.125 370.254,30.125 370.156,30.513 369.414 C 30.944 368.588,30.927 368.544,30.140 368.444 C 29.426 368.354,29.372 368.271,29.738 367.826 C 30.117 367.366,30.025 367.333,28.871 367.512 L 27.581 367.711 28.312 367.106 L 29.043 366.500 28.283 365.616 C 27.572 364.790,27.553 364.669,27.996 363.782 C 28.568 362.635,28.134 362.196,26.709 362.481 C 26.148 362.593,25.806 362.524,25.806 362.298 C 25.806 362.099,26.084 361.935,26.423 361.935 C 27.016 361.935,27.164 361.250,26.676 360.762 C 26.553 360.639,26.452 360.136,26.452 359.645 C 26.452 359.029,26.247 358.688,25.789 358.543 C 25.261 358.375,25.204 358.241,25.506 357.876 C 25.794 357.530,25.794 357.419,25.509 357.419 C 25.075 357.419,25.170 356.399,25.636 356.066 C 25.808 355.943,25.842 355.734,25.711 355.604 C 25.580 355.473,25.301 355.537,25.091 355.747 C 24.881 355.957,24.594 356.129,24.452 356.129 C 24.010 356.129,24.168 355.140,24.694 354.615 C 25.327 353.982,25.153 353.050,24.412 353.111 C 23.984 353.147,23.896 352.992,24.042 352.466 C 24.182 351.968,24.150 351.898,23.928 352.219 C 23.484 352.860,22.817 352.313,22.984 351.443 C 23.084 350.921,22.998 350.753,22.692 350.870 C 22.102 351.097,22.142 350.498,22.750 349.993 C 23.188 349.629,23.180 349.516,22.669 348.952 C 22.354 348.604,22.133 348.262,22.177 348.192 C 22.446 347.768,22.185 346.774,21.806 346.774 C 21.250 346.774,20.465 344.738,20.958 344.573 C 21.397 344.427,21.387 343.871,20.945 343.871 C 20.375 343.871,19.677 342.995,19.677 342.281 C 19.677 341.914,19.886 341.613,20.142 341.613 C 20.564 341.613,20.606 341.222,20.359 339.597 C 20.298 339.192,19.097 339.327,18.923 339.758 C 18.834 339.980,18.751 339.871,18.740 339.516 C 18.715 338.737,19.028 338.224,19.677 337.977 C 20.013 337.849,19.949 337.785,19.472 337.767 C 19.019 337.751,18.605 337.367,18.263 336.645 C 17.622 335.294,17.618 335.161,18.226 335.161 C 18.903 335.161,18.828 334.745,18.065 334.268 C 17.710 334.047,17.419 333.649,17.419 333.384 C 17.419 333.120,17.202 332.903,16.935 332.903 C 16.309 332.903,16.309 332.382,16.935 332.141 C 17.731 331.836,17.483 331.290,16.548 331.290 C 15.904 331.290,15.772 331.196,16.040 330.928 C 16.303 330.665,16.675 330.660,17.395 330.911 C 18.357 331.246,18.387 331.228,18.387 330.306 C 18.387 329.783,18.233 329.355,18.045 329.355 C 17.858 329.355,17.794 329.500,17.903 329.677 C 18.013 329.855,17.944 330.000,17.751 330.000 C 17.237 330.000,16.955 329.045,17.351 328.649 C 18.127 327.873,17.418 327.411,16.220 327.912 C 14.870 328.476,14.839 328.479,14.839 328.065 C 14.839 327.887,15.147 327.742,15.523 327.742 C 16.025 327.742,16.123 327.634,15.890 327.339 C 15.716 327.117,15.480 326.546,15.367 326.071 C 15.231 325.501,14.913 325.171,14.435 325.103 C 13.559 324.979,13.236 323.648,14.010 323.351 C 14.288 323.244,14.516 322.962,14.516 322.723 C 14.516 322.485,14.752 322.158,15.040 321.997 C 15.994 321.463,15.031 319.294,13.959 319.563 C 13.362 319.713,13.196 319.664,13.367 319.388 C 13.497 319.177,13.419 318.782,13.194 318.510 C 12.861 318.109,12.864 317.966,13.207 317.753 C 13.443 317.608,13.523 317.316,13.387 317.097 C 13.250 316.875,13.338 316.581,13.588 316.425 C 13.952 316.198,13.959 316.030,13.622 315.486 C 13.315 314.992,13.301 314.656,13.565 314.162 C 13.864 313.605,13.814 313.473,13.250 313.326 C 12.809 313.210,12.581 312.889,12.581 312.382 C 12.581 311.890,12.393 311.613,12.062 311.613 C 11.676 311.613,11.593 311.415,11.736 310.843 C 11.858 310.356,11.753 309.927,11.448 309.675 C 10.770 309.112,10.852 308.357,11.613 308.158 C 11.968 308.065,12.258 307.788,12.258 307.543 C 12.258 307.026,11.744 306.947,11.452 307.419 C 11.039 308.087,9.977 307.720,9.351 306.694 C 8.575 305.421,8.522 303.645,9.236 302.856 C 9.857 302.171,9.313 300.323,8.490 300.323 C 8.232 300.323,8.125 300.164,8.248 299.964 C 8.370 299.767,8.324 299.513,8.146 299.399 C 7.382 298.913,6.420 296.618,6.934 296.508 C 7.205 296.450,7.348 296.275,7.252 296.119 C 7.155 295.962,6.840 295.925,6.551 296.036 C 6.137 296.195,6.064 296.089,6.209 295.534 C 6.337 295.044,6.206 294.730,5.777 294.501 C 5.427 294.313,5.161 294.299,5.161 294.467 C 5.161 294.886,3.574 295.141,3.338 294.759 C 3.231 294.586,3.285 294.351,3.459 294.238 C 3.903 293.948,4.516 292.719,4.516 292.118 C 4.516 291.432,3.954 291.476,3.771 292.177 C 3.660 292.602,3.614 292.562,3.586 292.016 C 3.565 291.617,3.669 291.290,3.817 291.290 C 4.043 291.290,4.073 290.211,3.861 289.677 C 3.825 289.589,3.821 289.272,3.850 288.975 C 3.887 288.605,3.618 288.400,3.003 288.329 C 1.789 288.190,1.681 287.323,2.810 286.775 C 3.305 286.535,3.819 286.364,3.952 286.395 C 4.085 286.426,4.194 286.306,4.194 286.129 C 4.194 285.952,3.831 285.806,3.387 285.806 C 2.944 285.806,2.581 285.661,2.581 285.484 C 2.581 285.306,2.750 285.161,2.957 285.161 C 3.164 285.161,3.240 285.068,3.126 284.954 C 3.012 284.840,2.734 284.893,2.508 285.071 C 1.652 285.745,0.379 285.841,0.226 285.242 C 0.146 284.932,0.062 310.625,0.038 342.339 M1.613 298.548 C 1.613 298.815,1.468 299.032,1.290 299.032 C 1.113 299.032,0.968 298.815,0.968 298.548 C 0.968 298.282,1.113 298.065,1.290 298.065 C 1.468 298.065,1.613 298.282,1.613 298.548 M3.220 300.585 C 3.210 301.581,1.660 302.766,1.100 302.206 C 0.679 301.785,0.696 301.636,1.247 300.935 C 1.987 299.994,3.229 299.774,3.220 300.585 M7.835 301.290 C 8.033 302.045,8.021 302.049,6.961 301.566 C 6.076 301.162,6.141 300.645,7.078 300.645 C 7.402 300.645,7.743 300.935,7.835 301.290 M2.343 303.629 C 2.740 303.851,3.124 304.068,3.197 304.111 C 3.270 304.154,3.067 304.480,2.746 304.834 C 2.166 305.475,2.160 305.474,1.727 304.638 C 0.984 303.206,1.137 302.955,2.343 303.629 M7.410 307.436 C 7.056 308.099,6.990 308.116,6.710 307.615 C 6.500 307.240,6.529 306.909,6.800 306.582 C 7.399 305.859,7.888 306.543,7.410 307.436 M5.161 307.414 C 5.161 307.801,4.202 308.503,3.978 308.280 C 3.869 308.170,3.944 307.882,4.145 307.639 C 4.346 307.397,4.407 307.096,4.281 306.969 C 4.155 306.843,4.302 306.836,4.607 306.953 C 4.912 307.070,5.161 307.278,5.161 307.414 M10.936 312.177 C 10.953 312.399,10.726 312.581,10.430 312.581 C 10.134 312.581,9.988 312.485,10.105 312.368 C 10.221 312.252,10.155 311.961,9.958 311.723 C 9.693 311.405,9.694 311.290,9.961 311.290 C 10.160 311.290,10.337 311.036,10.355 310.726 C 10.388 310.149,10.870 311.354,10.936 312.177 M10.968 315.323 C 10.968 315.589,10.823 315.806,10.645 315.806 C 10.468 315.806,10.323 315.589,10.323 315.323 C 10.323 315.056,10.468 314.839,10.645 314.839 C 10.823 314.839,10.968 315.056,10.968 315.323 M14.516 318.560 C 14.516 318.955,14.646 318.985,15.161 318.710 C 15.516 318.520,15.806 318.297,15.806 318.214 C 15.806 318.132,15.516 318.065,15.161 318.065 C 14.796 318.065,14.516 318.280,14.516 318.560 M23.619 350.311 C 23.634 350.838,23.751 351.203,23.879 351.124 C 24.200 350.926,24.176 349.355,23.852 349.355 C 23.709 349.355,23.604 349.785,23.619 350.311"/></g></svg>